<svg xmlns="http://www.w3.org/2000/svg" width="24" height="24" viewBox="0 0 24 24" fill="none">
  <path d="M6 11.9942C6 12.2936 6.1227 12.5584 6.35583 12.7772L16.0736 21.6891C16.2945 21.8849 16.5644 22 16.8712 22C17.5092 22 18 21.5509 18 20.9522C18 20.6528 17.8773 20.388 17.681 20.2038L8.74847 11.9942L17.681 3.7962C17.8773 3.60046 18 3.33564 18 3.04778C18 2.44905 17.5092 2 16.8712 2C16.5644 2 16.2945 2.11514 16.0859 2.31088L6.35583 11.2228C6.1227 11.4185 6 11.7064 6 11.9942Z" fill="currentColor"/>
</svg>
