<svg xmlns="http://www.w3.org/2000/svg" width="24" height="25" viewBox="0 0 24 25" fill="none">
  <path d="M3.75 20.353V8.84171C3.75 7.08291 4.60681 6.18593 6.27802 6.18593H7.66928V4.64699C7.66928 2.89698 8.51761 2 10.1973 2H13.2513C14.1335 2 14.8207 2.22864 15.406 2.84422L19.4356 7.1005C20.0464 7.75126 20.25 8.4196 20.25 9.46608V16.1671C20.25 17.9171 19.4017 18.8141 17.7305 18.8141H16.3392V20.353C16.3392 22.103 15.4909 23 13.8112 23H6.27802C4.59833 23 3.75 22.1118 3.75 20.353ZM15.5672 11.6294C16.212 12.3241 16.3392 12.8078 16.3392 13.8894V17.3807H17.6371C18.4515 17.3807 18.8672 16.9234 18.8672 16.1143V9.07915H15.1855C14.2438 9.07915 13.7688 8.58668 13.7688 7.60176V3.43342H10.2821C9.46774 3.43342 9.05206 3.8907 9.05206 4.69975V6.18593H9.09447C10.0192 6.18593 10.5451 6.33543 11.1644 6.99498L15.5672 11.6294ZM14.9819 7.40829C14.9819 7.69849 15.0922 7.82161 15.3721 7.82161H18.5109L14.9819 4.09296V7.40829ZM5.14126 20.309C5.14126 21.1181 5.55694 21.5666 6.36285 21.5666H13.7179C14.5407 21.5666 14.9564 21.1181 14.9564 20.309V13.995H10.5197C9.47622 13.995 8.94177 13.4585 8.94177 12.3593V7.62814H6.37134C5.55694 7.62814 5.14126 8.08543 5.14126 8.88568V20.309ZM10.6639 12.6759H14.7104L10.2143 7.93593V12.2098C10.2143 12.544 10.3415 12.6759 10.6639 12.6759Z" fill="currentColor"/>
</svg>
