<svg xmlns="http://www.w3.org/2000/svg" width="20" height="20" viewBox="0 0 20 20" fill="none">
  <path d="M6.32014 17.4306H8.18424H8.18034H11.8153H13.6864C15.1222 17.4306 15.8366 16.7401 15.8366 15.3725V9.40206C15.8366 8.55384 15.7325 8.18562 15.1777 7.64644L11.3558 3.95767C10.8287 3.44479 10.3917 3.33301 9.61483 3.33301H6.32014C4.89129 3.33301 4.16992 4.02999 4.16992 5.39767V15.3725C4.16992 16.7467 4.88435 17.4306 6.32014 17.4306ZM6.36869 16.3719C5.65427 16.3719 5.28665 16.0103 5.28665 15.3527V5.41739C5.28665 4.76643 5.65427 4.39164 6.37563 4.39164H9.46223V8.21192C9.46223 9.04041 9.89921 9.44808 10.7662 9.44808H14.7199V15.3527C14.7199 16.0103 14.3522 16.3719 13.6309 16.3719H11.8153H8.18424V17.4306H11.8153H8.18034L8.18424 16.3719H6.36869ZM10.8911 8.45521C10.6136 8.45521 10.5096 8.35 10.5096 8.08699V4.59548L14.5048 8.45521H10.8911Z" fill="currentColor"/>
  <path d="M7.72752 11.2678C7.39717 11.2678 7.15557 11.3725 6.99285 11.5456V11.3315H6.25326V14.5198H6.99285V13.3948C7.15557 13.5679 7.39717 13.6727 7.72752 13.6727C8.37344 13.6727 8.90595 13.1489 8.90595 12.4702C8.90595 11.7916 8.37344 11.2678 7.72752 11.2678ZM7.5796 13.0259C7.23939 13.0259 6.99285 12.8118 6.99285 12.4702C6.99285 12.1286 7.23939 11.9145 7.5796 11.9145C7.91982 11.9145 8.16635 12.1286 8.16635 12.4702C8.16635 12.8118 7.91982 13.0259 7.5796 13.0259Z" fill="currentColor"/>
  <path d="M11.1151 10.4206V11.5456C10.9524 11.3725 10.7108 11.2678 10.3805 11.2678C9.73453 11.2678 9.20202 11.7916 9.20202 12.4702C9.20202 13.1489 9.73453 13.6727 10.3805 13.6727C10.7108 13.6727 10.9524 13.5679 11.1151 13.3948V13.6089H11.8547V10.4206H11.1151ZM10.5284 13.0259C10.1882 13.0259 9.94162 12.8118 9.94162 12.4702C9.94162 12.1286 10.1882 11.9145 10.5284 11.9145C10.8686 11.9145 11.1151 12.1286 11.1151 12.4702C11.1151 12.8118 10.8686 13.0259 10.5284 13.0259Z" fill="currentColor"/>
  <path d="M13.7533 11.0127V10.3568C12.9348 10.3113 12.5551 10.6939 12.5551 11.3315H12.2248V11.9874H12.5551V13.6089H13.2947V11.9874H13.7533V11.3315H13.2947C13.2947 11.0674 13.4771 10.9899 13.7533 11.0127Z" fill="currentColor"/>
</svg>
